<svg width="13" height="13" viewBox="0 0 13 13" fill="none" xmlns="http://www.w3.org/2000/svg">
<path d="M4.61538 12.4355C4.93292 12.4355 5.184 12.2952 5.36123 12.0294L11.9557 1.68355C12.0886 1.46939 12.1403 1.30693 12.1403 1.13709C12.1403 0.716162 11.8597 0.435547 11.4388 0.435547C11.1434 0.435547 10.9735 0.538931 10.7889 0.826931L4.58585 10.7002L1.37354 6.52047C1.18154 6.26939 1.00431 6.16601 0.731077 6.16601C0.302769 6.16601 0 6.46139 0 6.88232C0 7.05955 0.0738462 7.24416 0.221538 7.43616L3.84 12.022C4.06892 12.3026 4.29046 12.4355 4.61538 12.4355Z" fill="#F2F2F2"/>
</svg>
