<svg width="16" height="16" viewBox="0 0 16 16" fill="none" xmlns="http://www.w3.org/2000/svg">
<path d="M2.8908 13.109C3.18563 13.4123 3.69106 13.4039 3.97747 13.109L7.99563 9.09087L12.0138 13.109C12.3086 13.4039 12.814 13.4123 13.1089 13.109C13.4121 12.8142 13.4037 12.3088 13.1089 12.0139L9.09072 7.99578L13.1089 3.97762C13.4037 3.69121 13.4121 3.18578 13.1089 2.89095C12.814 2.58769 12.3086 2.59612 12.0138 2.89095L7.99563 6.90911L3.97747 2.89095C3.69106 2.59612 3.18563 2.58769 2.8908 2.89095C2.58754 3.18578 2.59597 3.69121 2.8908 3.97762L6.90895 7.99578L2.8908 12.0139C2.59597 12.3088 2.58754 12.8142 2.8908 13.109Z" fill="#F2F2F2"/>
</svg>
