<svg width="162" height="160" viewBox="0 0 162 160" fill="none" xmlns="http://www.w3.org/2000/svg">
<g filter="url(#filter0_d_5840_78762)">
<path d="M88.6667 69.0878C95.7667 69.0878 101.2 63.1266 101.2 55.3965C101.2 48.0596 95.5667 42 88.6667 42C81.7667 42 76.0667 48.0923 76.1667 55.3965C76.2333 63.1266 81.6 69.0878 88.6667 69.0878ZM88.6667 67.3191C82.6333 67.3191 77.9667 62.1767 77.9667 55.3965C77.8667 49.0422 82.7333 43.7687 88.6667 43.7687C94.5667 43.7687 99.4 49.0094 99.4 55.3965C99.4 62.1767 94.7333 67.3191 88.6667 67.3191ZM79.1333 96.8308H109.833C113.333 96.8308 115 95.6516 115 92.9658C115 85.0065 104.833 73.9355 88.6 73.9355C81.7 73.9355 75.9 75.9007 71.5 78.8486C72.0333 79.2089 72.4667 79.5365 72.9333 79.9295C76.9333 77.4074 82.2333 75.7042 88.6 75.7042C104 75.7042 113.2 85.6943 113.2 92.933C113.2 94.5052 112.4 95.0948 109.9 95.0948H79.4C79.3667 95.7171 79.2667 96.2739 79.1333 96.8308ZM62 108C70.2 108 77 101.351 77 93.2605C77 85.1702 70.2333 78.5211 62 78.5211C53.8 78.5211 47 85.203 47 93.2605C47 101.384 53.8 108 62 108ZM53.4667 94.4725C52.8 94.4725 52.2 93.9156 52.2 93.2605C52.2 92.6055 52.8 92.0486 53.4667 92.0486H70.5C71.1667 92.0486 71.7333 92.6055 71.7333 93.2605C71.7333 93.9156 71.1667 94.4725 70.5 94.4725H53.4667Z" fill="white"/>
</g>
<defs>
<filter id="filter0_d_5840_78762" x="0.371433" y="0.0342898" width="161.257" height="159.257" filterUnits="userSpaceOnUse" color-interpolation-filters="sRGB">
<feFlood flood-opacity="0" result="BackgroundImageFix"/>
<feColorMatrix in="SourceAlpha" type="matrix" values="0 0 0 0 0 0 0 0 0 0 0 0 0 0 0 0 0 0 127 0" result="hardAlpha"/>
<feOffset dy="4.66286"/>
<feGaussianBlur stdDeviation="23.3143"/>
<feComposite in2="hardAlpha" operator="out"/>
<feColorMatrix type="matrix" values="0 0 0 0 1 0 0 0 0 1 0 0 0 0 1 0 0 0 1 0"/>
<feBlend mode="normal" in2="BackgroundImageFix" result="effect1_dropShadow_5840_78762"/>
<feBlend mode="normal" in="SourceGraphic" in2="effect1_dropShadow_5840_78762" result="shape"/>
</filter>
</defs>
</svg>
