<svg width="88" height="88" viewBox="0 0 88 88" fill="none" xmlns="http://www.w3.org/2000/svg">
<g opacity="0.4">
<path d="M51.6667 38.0878C58.7667 38.0878 64.2 32.1266 64.2 24.3965C64.2 17.0596 58.5667 11 51.6667 11C44.7667 11 39.0667 17.0923 39.1667 24.3965C39.2333 32.1266 44.6 38.0878 51.6667 38.0878ZM51.6667 36.3191C45.6333 36.3191 40.9667 31.1767 40.9667 24.3965C40.8667 18.0422 45.7333 12.7687 51.6667 12.7687C57.5667 12.7687 62.4 18.0094 62.4 24.3965C62.4 31.1767 57.7333 36.3191 51.6667 36.3191ZM42.1333 65.8308H72.8333C76.3333 65.8308 78 64.6516 78 61.9658C78 54.0065 67.8333 42.9355 51.6 42.9355C44.7 42.9355 38.9 44.9007 34.5 47.8486C35.0333 48.2089 35.4667 48.5365 35.9333 48.9295C39.9333 46.4074 45.2333 44.7042 51.6 44.7042C67 44.7042 76.2 54.6943 76.2 61.933C76.2 63.5052 75.4 64.0948 72.9 64.0948H42.4C42.3667 64.7171 42.2667 65.2739 42.1333 65.8308ZM25 77C33.2 77 40 70.3509 40 62.2605C40 54.1702 33.2333 47.5211 25 47.5211C16.8 47.5211 10 54.203 10 62.2605C10 70.3836 16.8 77 25 77ZM16.4667 63.4725C15.8 63.4725 15.2 62.9156 15.2 62.2605C15.2 61.6055 15.8 61.0486 16.4667 61.0486H33.5C34.1667 61.0486 34.7333 61.6055 34.7333 62.2605C34.7333 62.9156 34.1667 63.4725 33.5 63.4725H16.4667Z" fill="#F2F2F2"/>
</g>
</svg>
