<svg width="20" height="20" viewBox="0 0 20 20" fill="none" xmlns="http://www.w3.org/2000/svg">
<path d="M4.18413 15.9091H15.8314C17.0668 15.9091 17.7273 15.2315 17.7273 14.0151V5.98487C17.7273 4.76071 17.0668 4.09088 15.8158 4.09088H4.16859C2.93316 4.09088 2.27271 4.74531 2.27271 5.98487V14.0151C2.27271 15.2546 2.93316 15.9091 4.18413 15.9091ZM9.14139 10.7352L3.08856 4.86849C3.3372 4.62982 3.71016 4.50663 4.19967 4.50663H15.8003C16.3131 4.50663 16.7016 4.64522 16.958 4.93009L10.9673 10.7352C10.6565 11.0432 10.3147 11.151 10.0583 11.151C9.79407 11.151 9.44442 11.0278 9.14139 10.7352ZM2.69229 13.9997V6.00027C2.69229 5.7 2.73891 5.43823 2.83215 5.23035L7.89042 10.1039L2.871 14.8466C2.75445 14.6233 2.69229 14.3384 2.69229 13.9997ZM17.3154 6.00027V13.9997C17.3154 14.2999 17.2611 14.5617 17.16 14.7696L12.2183 10.1039L17.1911 5.30735C17.2688 5.49982 17.3154 5.7308 17.3154 6.00027ZM4.19967 15.4933C3.74901 15.4933 3.39936 15.3855 3.15072 15.1853L8.19345 10.3965L8.84613 11.0278C9.26571 11.4205 9.69306 11.5667 10.0583 11.5667C10.4157 11.5667 10.843 11.4205 11.2626 11.0278L11.9153 10.3965L16.9036 15.1238C16.6472 15.3701 16.2743 15.4933 15.8003 15.4933H4.19967Z" fill="#F2F2F2" stroke="#F2F2F2" stroke-width="0.5"/>
</svg>
