<svg width="24" height="24" viewBox="0 0 24 24" fill="none" xmlns="http://www.w3.org/2000/svg">
<path d="M4.87619 20H19.3905C21.0381 20 22 19.0244 22 17.1024V6.90732C22 4.98537 21.0286 4 19.1333 4H4.61905C2.9619 4 2 4.97561 2 6.90732V17.1024C2 19.0244 2.97143 20 4.87619 20ZM10.9429 12.4293L4.21905 5.61951C4.39048 5.55122 4.6 5.5122 4.8381 5.5122H19.1619C19.4095 5.5122 19.619 5.55122 19.8095 5.62927L13.0857 12.4293C12.7048 12.8195 12.3619 12.9854 12.019 12.9854C11.6667 12.9854 11.3238 12.8098 10.9429 12.4293ZM3.47619 17.0732V6.87805L8.5619 12L3.47619 17.161C3.47619 17.0732 3.47619 17.0732 3.47619 17.0732ZM20.5333 6.93659V17.1317L15.4667 12L20.5333 6.90732V6.93659ZM4.8381 18.4878C4.60952 18.4878 4.40952 18.4585 4.2381 18.4L9.5619 13.0049L10.1143 13.561C10.7524 14.2146 11.3714 14.478 12.019 14.478C12.6571 14.478 13.2762 14.2146 13.9143 13.561L14.4762 13.0049L19.781 18.3902C19.6095 18.4585 19.4 18.4878 19.1619 18.4878H4.8381Z" fill="#6FCF97"/>
</svg>
