<svg xmlns="http://www.w3.org/2000/svg" width="24" height="24" fill="none">
  <path fill="#F2F2F2" d="M2 9.106c0 4.275 3.577 8.476 9.206 12.085.244.158.572.306.794.306.222 0 .55-.148.794-.306C18.424 17.581 22 13.38 22 9.105 22 5.529 19.534 3 16.275 3 14.402 3 12.9 3.878 12 5.233 11.1 3.889 9.598 3 7.725 3 4.465 3 2 5.53 2 9.106Zm1.746 0c0-2.614 1.704-4.37 4-4.37 1.862 0 2.91 1.153 3.556 2.137.275.402.455.519.698.519.243 0 .402-.127.698-.519.678-.974 1.704-2.138 3.556-2.138 2.296 0 4 1.757 4 4.37 0 3.673-3.852 7.652-8.053 10.445-.095.064-.159.106-.201.106-.042 0-.106-.042-.201-.106-4.201-2.793-8.053-6.772-8.053-10.444Z"/>
</svg>
