<svg xmlns="http://www.w3.org/2000/svg" width="26" height="26">
    <path fill="#fff" d="M.284 8.68c0 5.557 4.65 11.019 11.968 15.71.317.206.743.399 1.032.399.29 0 .715-.193 1.032-.4 7.318-4.69 11.968-10.152 11.968-15.71 0-4.649-3.205-7.937-7.442-7.937-2.435 0-4.389 1.142-5.558 2.903C12.13 1.898 10.161.742 7.726.742 3.49.742.284 4.03.284 8.68Zm2.27 0c0-3.398 2.215-5.682 5.2-5.682 2.421 0 3.797 1.5 4.622 2.78.358.522.592.673.908.673.317 0 .523-.165.908-.674.88-1.266 2.215-2.779 4.622-2.779 2.985 0 5.2 2.284 5.2 5.682 0 4.773-5.007 9.946-10.468 13.578-.124.082-.207.137-.262.137-.055 0-.137-.055-.261-.137C7.56 18.625 2.554 13.453 2.554 8.68Z"/>
</svg>