<?xml version="1.0" encoding="UTF-8"?>
<!-- Generated by Pixelmator Pro 3.3.8 -->
<svg width="26" height="26" viewBox="0 0 26 26" xmlns="http://www.w3.org/2000/svg">
    <g id="Group">
        <path id="Path" fill="#ffffff" stroke="none" d="M 0.284201 8.679802 C 0.284201 14.2374 4.933901 19.698799 12.252399 24.389801 C 12.568802 24.596199 12.9953 24.7887 13.284199 24.7887 C 13.573101 24.7887 13.9995 24.596199 14.315899 24.389801 C 21.634399 19.698799 26.284199 14.2374 26.284199 8.679802 C 26.284199 4.029999 23.078899 0.742199 18.8419 0.742199 C 16.406898 0.742199 14.453499 1.884003 13.284199 3.644798 C 12.128601 1.897697 10.1614 0.742199 7.7265 0.742199 C 3.4895 0.742199 0.284201 4.029999 0.284201 8.679802 Z M 2.554001 8.679802 C 2.554001 5.281898 4.768801 2.998299 7.754 2.998299 C 10.1752 2.998299 11.5508 4.4977 12.376202 5.7771 C 12.733898 6.2999 12.9678 6.451202 13.284199 6.451202 C 13.600601 6.451202 13.8069 6.286102 14.192101 5.7771 C 15.072498 4.511497 16.406898 2.998299 18.814301 2.998299 C 21.7995 2.998299 24.014301 5.281898 24.014301 8.679802 C 24.014301 13.4533 19.006901 18.625801 13.545601 22.2575 C 13.4217 22.340099 13.339199 22.3951 13.284199 22.3951 C 13.229198 22.3951 13.146599 22.340099 13.0228 22.2575 C 7.561399 18.625801 2.554001 13.4533 2.554001 8.679802 Z"/>
    </g>
</svg>
