<svg width="27" height="27" viewBox="0 0 27 27" fill="none" xmlns="http://www.w3.org/2000/svg">
<path d="M23.6016 25.9191C23.983 26.2874 24.6142 26.3005 24.9693 25.9191C25.3507 25.5377 25.3507 24.9196 24.9693 24.5382L2.44124 2.02332C2.073 1.65508 1.44174 1.64193 1.06036 2.02332C0.692121 2.39155 0.692121 3.03596 1.06036 3.39105L23.6016 25.9191ZM22.6284 20.1194C25.2718 17.213 26.7842 14.1488 26.7842 11.0582C26.7842 6.6131 23.7199 3.46995 19.6694 3.46995C17.3416 3.46995 15.4741 4.56151 14.3563 6.24486C13.2384 4.57466 11.3709 3.46995 9.04316 3.46995C8.13572 3.46995 7.28089 3.64092 6.47867 3.9434L8.29354 5.75827C8.54341 5.66621 8.81959 5.62676 9.10891 5.62676C11.3841 5.62676 12.6992 7.06024 13.4883 8.28331C13.8302 8.78305 14.0538 8.92772 14.3563 8.92772C14.6587 8.92772 14.856 8.7699 15.2242 8.28331C16.0659 7.07339 17.3416 5.62676 19.6431 5.62676C22.4969 5.62676 24.6142 7.80986 24.6142 11.0582C24.6142 13.5307 23.1939 16.1214 21.0502 18.5413L22.6284 20.1194ZM19.0249 23.4598L17.4863 21.9211C16.5657 22.6576 15.5925 23.3809 14.6061 24.0385C14.4878 24.1174 14.4089 24.17 14.3563 24.17C14.3037 24.17 14.2247 24.1174 14.1064 24.0385C8.88534 20.5666 4.09829 15.6217 4.09829 11.0582C4.09829 10.2691 4.25611 9.57213 4.53228 8.95402L2.83577 7.27066C2.25712 8.34906 1.92834 9.63788 1.92834 11.0582C1.92834 16.3713 6.37346 21.5924 13.3699 26.0769C13.6724 26.2742 14.0801 26.4583 14.3563 26.4583C14.6324 26.4583 15.0401 26.2742 15.3426 26.0769C16.6577 25.2353 17.9071 24.3541 19.0249 23.4598Z" fill="#828282"/>
</svg>
