<svg width="24" height="24" viewBox="0 0 24 24" fill="none" xmlns="http://www.w3.org/2000/svg">
<path d="M7.31183 22H16.6882C18.2366 22 19 21.2279 19 19.5657V12.5094C19 11.0402 18.4086 10.2788 17.2043 10.118V7.68365C17.2043 3.85523 14.6774 2 12 2C9.32258 2 6.7957 3.85523 6.7957 7.68365V10.118C5.5914 10.2788 5 11.0402 5 12.5094V19.5657C5 21.2279 5.76344 22 7.31183 22ZM8.52688 7.47989C8.52688 4.99196 10.1183 3.65147 12 3.65147C13.871 3.65147 15.4731 4.99196 15.4731 7.47989V10.0858H8.52688V7.47989ZM7.44086 20.37C6.97849 20.37 6.75269 20.1662 6.75269 19.6086V12.4558C6.75269 11.8981 6.97849 11.7051 7.44086 11.7051H16.5591C17.0323 11.7051 17.2473 11.8981 17.2473 12.4558V19.6086C17.2473 20.1662 17.0323 20.37 16.5591 20.37H7.44086Z" fill="#6FCF97"/>
</svg>
