<svg width="20" height="20" viewBox="0 0 20 20" fill="none" xmlns="http://www.w3.org/2000/svg">
<path fill-rule="evenodd" clip-rule="evenodd" d="M13.8382 1.96833C14.0224 1.85443 14.2525 1.84408 14.4462 1.94097L18.1251 3.78074V16.2224L14.4462 18.0622C14.2525 18.1591 14.0224 18.1487 13.8382 18.0348C13.6539 17.9209 13.5417 17.7197 13.5417 17.503V2.50013C13.5417 2.28345 13.6539 2.08223 13.8382 1.96833ZM5.20841 5.0012C5.20841 4.20262 5.93761 3.53809 6.66675 3.53809H10.8334C11.1786 3.53809 11.4584 3.81795 11.4584 4.16326C11.4584 4.50999 11.1771 4.79285 10.8334 4.79286L6.45841 4.78819V9.37245L10.1575 9.3743L8.72481 7.94158C8.48073 7.69751 8.48073 7.30178 8.72481 7.0577C8.96888 6.81362 9.36461 6.81362 9.60869 7.0577L12.1087 9.5577C12.3528 9.80178 12.3528 10.1975 12.1087 10.4416L9.60869 12.9416C9.36461 13.1857 8.96888 13.1857 8.72481 12.9416C8.48073 12.6975 8.48073 12.3018 8.72481 12.0577L10.1596 10.6229H1.66675C1.32161 10.6229 1.04175 10.343 1.04175 9.99772C1.04175 9.65241 1.32161 9.37256 1.66675 9.37256H5.20841V5.0012ZM16.8751 4.5535L14.7917 3.51164V16.4915L16.8751 15.4497V4.5535ZM5.20841 13.3317C5.20841 12.9864 5.48828 12.7065 5.83341 12.7065C6.17856 12.7065 6.45841 12.9864 6.45841 13.3317V15.207H10.8334C11.1786 15.207 11.4584 15.4869 11.4584 15.8322C11.4584 16.1775 11.1786 16.4573 10.8334 16.4573H6.66675C5.93688 16.4573 5.20841 15.7966 5.20841 14.9987V13.3317Z" fill="#F2F2F2"/>
</svg>
