<svg xmlns="http://www.w3.org/2000/svg" width="85" height="33" fill="none"><g filter="url(#a)"><path fill="url(#b)" fill-rule="evenodd" d="M15.174 8.622V5.637h2.33c.663 0 1.136.118 1.418.352.283.235.424.594.424 1.075 0 .55-.147.951-.441 1.206-.295.25-.816.376-1.566.376-.274 0-.665-.004-1.17-.012a79.74 79.74 0 0 0-.995-.012Zm4.402 5.022h1.176l-1.424-3.117a6.213 6.213 0 0 0-.253-.49 16.04 16.04 0 0 0-.276-.501 2.064 2.064 0 0 1-.118-.215c.53-.155.938-.434 1.224-.836.29-.402.435-.882.435-1.439a3.18 3.18 0 0 0-.082-.758 2.081 2.081 0 0 0-.23-.585 1.356 1.356 0 0 0-.376-.418 2.13 2.13 0 0 0-.506-.287 2.832 2.832 0 0 0-.642-.173 6.516 6.516 0 0 0-.735-.09 13.442 13.442 0 0 0-.853-.023h-2.784v8.932h1.042V9.512l1.56.048c.391 0 .73-.01 1.017-.03.09.151.298.599.624 1.343l1.2 2.77Zm-12.558-.848V9.44H8.59c.844 0 1.464.124 1.86.37.4.243.6.67.6 1.278 0 .585-.184 1.017-.553 1.296-.369.274-.922.412-1.66.412H7.018ZM8.884 8.61H7.018V5.685h1.424c.78 0 1.356.105 1.724.316.373.207.56.587.56 1.14 0 .55-.156.932-.465 1.147-.31.215-.77.322-1.377.322Zm-.389-3.797H6v8.83h3.037c1.02 0 1.787-.218 2.3-.656.518-.438.777-1.057.777-1.857 0-.55-.15-1.019-.453-1.409-.302-.39-.745-.64-1.33-.752.255-.084.477-.195.665-.335.192-.143.338-.284.436-.424.098-.143.174-.3.23-.471.058-.171.093-.31.105-.418.016-.112.024-.223.024-.334 0-.757-.271-1.308-.813-1.654-.537-.347-1.365-.52-2.483-.52Zm14.405 8.83v-8.83h19.194l-.471.914H23.918v2.89h16.65l-.431.901h-16.22v3.212H39.17l-.477.914H22.9Zm21.5-7.779c.087.303.544 1.674 1.371 4.114h-2.8l1.43-4.114Zm1.701 4.98 1.018 2.8h1.047l-3.242-8.849h-1.042l-3.342 8.849h1.036l1.053-2.8h3.472Zm5.913 2.8H50.99V5.727h-2.677v-.914h6.38v.914h-2.678v7.917ZM6 17.166l2.65 8.832h1.118l2.246-7.422 2.14 7.422h1.123l2.687-8.832h-1.076l-2.193 7.608-2.11-7.446h-1.159l-2.175 7.44-2.175-7.602H6Zm13.538 8.832h1.028v-8.832h-1.028v8.832Zm6.394 0h-1.034V18.08h-2.704v-.913h6.442v.913h-2.704v7.918Zm25.225 0h1.028v-8.832h-1.028v3.792H31.239v-3.791h-1.028v8.83h1.028v-4.131h19.918v4.132ZM71.562 26l-2.65-8.832h-1.118l-2.246 7.422-2.14-7.422h-1.123L59.599 26h1.075l2.193-7.608 2.11 7.447h1.159l2.175-7.44 2.175 7.6h1.076Zm-8.177-12.368h-1.028V9.5h-4.93v4.132H56.4V4.8h1.028v3.792h4.93V4.8h1.027v8.832Zm9.818 3.568V26h5.14l.049-.911h-4.149v-3.201h3.818v-.899h-3.818v-2.88h4.016l.043-.91h-5.099Z" clip-rule="evenodd" shape-rendering="crispEdges"/></g><g filter="url(#c)" opacity=".6"><path fill="url(#d)" d="M65.317 13.641v-8.93H78.06v.925h-11.7v2.922h11.7v.911h-11.7v3.248h11.713v.924H65.317Z" shape-rendering="crispEdges"/></g><defs><linearGradient id="b" x1="9.016" x2="95.283" y1="13.092" y2="11.987" gradientUnits="userSpaceOnUse"><stop stop-color="#fff"/><stop offset=".152" stop-color="#fff" stop-opacity=".848"/><stop offset="1" stop-color="#fff" stop-opacity="0"/></linearGradient><linearGradient id="d" x1="9.404" x2="131.536" y1="8.784" y2="8.275" gradientUnits="userSpaceOnUse"><stop offset=".171" stop-color="#fff"/><stop offset="1" stop-color="#fff" stop-opacity="0"/></linearGradient><filter id="a" width="82.715" height="31.611" x=".838" y="1.271" color-interpolation-filters="sRGB" filterUnits="userSpaceOnUse"><feFlood flood-opacity="0" result="BackgroundImageFix"/><feColorMatrix in="SourceAlpha" result="hardAlpha" values="0 0 0 0 0 0 0 0 0 0 0 0 0 0 0 0 0 0 127 0"/><feOffset dy="1.721"/><feGaussianBlur stdDeviation="2.581"/><feComposite in2="hardAlpha" operator="out"/><feColorMatrix values="0 0 0 0 0 0 0 0 0 0 0 0 0 0 0 0 0 0 0.25 0"/><feBlend in2="BackgroundImageFix" result="effect1_dropShadow_5838_65006"/><feBlend in="SourceGraphic" in2="effect1_dropShadow_5838_65006" result="shape"/></filter><filter id="c" width="25.126" height="21.299" x="59.132" y=".588" color-interpolation-filters="sRGB" filterUnits="userSpaceOnUse"><feFlood flood-opacity="0" result="BackgroundImageFix"/><feColorMatrix in="SourceAlpha" result="hardAlpha" values="0 0 0 0 0 0 0 0 0 0 0 0 0 0 0 0 0 0 127 0"/><feOffset dy="2.062"/><feGaussianBlur stdDeviation="3.093"/><feComposite in2="hardAlpha" operator="out"/><feColorMatrix values="0 0 0 0 0 0 0 0 0 0 0 0 0 0 0 0 0 0 0.25 0"/><feBlend in2="BackgroundImageFix" result="effect1_dropShadow_5838_65006"/><feBlend in="SourceGraphic" in2="effect1_dropShadow_5838_65006" result="shape"/></filter></defs></svg>