<svg width="68" height="29" viewBox="0 0 68 29" fill="none" xmlns="http://www.w3.org/2000/svg">
<g filter="url(#filter0_d_5838_69307)">
<path fill-rule="evenodd" clip-rule="evenodd" d="M13.0965 7.84068V5.53141H14.8992C15.4121 5.53141 15.7778 5.62224 15.9963 5.8039C16.2148 5.98556 16.324 6.26268 16.324 6.63524C16.324 7.06015 16.2102 7.37113 15.9826 7.56819C15.755 7.76217 15.3514 7.85916 14.7717 7.85916C14.5593 7.85916 14.2573 7.85608 13.8658 7.84992C13.4773 7.84376 13.2209 7.84068 13.0965 7.84068ZM16.5016 11.7249H17.412L16.3104 9.314C16.2649 9.21239 16.1996 9.08615 16.1146 8.93528C16.0327 8.78133 15.9614 8.65201 15.9007 8.54732C15.84 8.44263 15.8096 8.38721 15.8096 8.38105C16.2193 8.26097 16.535 8.04544 16.7565 7.73445C16.9811 7.42347 17.0934 7.05245 17.0934 6.62138C17.0934 6.40277 17.0721 6.20725 17.0296 6.03483C16.9872 5.85932 16.928 5.70845 16.8521 5.58221C16.7793 5.45597 16.6822 5.3482 16.5608 5.25891C16.4394 5.16654 16.3089 5.09264 16.1693 5.03722C16.0297 4.97872 15.8643 4.93407 15.6731 4.90328C15.4849 4.86941 15.2952 4.84632 15.104 4.834C14.9128 4.82169 14.6928 4.81553 14.4439 4.81553H12.2907V11.7249H13.0965V8.52885L14.3028 8.56579C14.6063 8.56579 14.8688 8.5581 15.0904 8.5427C15.1602 8.6597 15.321 9.0061 15.5729 9.58188L16.5016 11.7249ZM6.78755 11.069V8.47342H8.00301C8.6555 8.47342 9.13501 8.56887 9.44153 8.75977C9.75109 8.94759 9.90586 9.27705 9.90586 9.74814C9.90586 10.2008 9.76323 10.5348 9.47795 10.7504C9.19267 10.9628 8.76476 11.069 8.1942 11.069H6.78755ZM8.23062 7.83144H6.78755V5.56835H7.8892C8.49314 5.56835 8.93774 5.64995 9.22302 5.81314C9.51133 5.97325 9.65549 6.26729 9.65549 6.69528C9.65549 7.12019 9.53561 7.41577 9.29586 7.58204C9.0561 7.74831 8.70102 7.83144 8.23062 7.83144ZM7.93017 4.89404H6V11.7249H8.34898C9.13804 11.7249 9.73136 11.5555 10.1289 11.2168C10.5295 10.8781 10.7298 10.3994 10.7298 9.78047C10.7298 9.35557 10.613 8.99224 10.3793 8.6905C10.1456 8.38875 9.80268 8.19477 9.35048 8.10856C9.54775 8.0439 9.71922 7.95768 9.86489 7.84992C10.0136 7.73907 10.1259 7.62977 10.2018 7.522C10.2776 7.41116 10.3368 7.28953 10.3793 7.15714C10.4248 7.02474 10.4521 6.91697 10.4612 6.83384C10.4734 6.74762 10.4795 6.66141 10.4795 6.5752C10.4795 5.99018 10.27 5.56374 9.85124 5.29586C9.43546 5.02798 8.7951 4.89404 7.93017 4.89404ZM19.0731 11.7249V4.89404H33.9213L33.5565 5.60068H19.8606V7.83606H32.7403L32.4074 8.53346H19.8606V11.0182H31.6589L31.2895 11.7249H19.0731ZM35.7053 5.70691C35.7721 5.94092 36.1256 7.00164 36.766 8.88909H34.5991L35.7053 5.70691ZM37.0209 9.55878L37.8084 11.7249H38.6188L36.1104 4.88019H35.3047L32.719 11.7249H33.5202L34.3351 9.55878H37.0209ZM41.5954 11.7249H40.8033V5.60068H38.732V4.89404H43.6667V5.60068H41.5954V11.7249ZM6 14.4504L8.05045 21.2821H8.91477L10.6526 15.5405L12.3077 21.2821H13.1766L15.2546 14.4504H14.4225L12.726 20.3351L11.0939 14.5751H10.1974L8.51479 20.3305L6.83213 14.4504H6ZM16.4726 21.2821H17.2679V14.4504H16.4726V21.2821ZM21.419 21.2821H20.6191V15.1571H18.5272V14.4504H23.5109V15.1571H21.419V21.2821ZM40.932 21.2821H41.7273V14.4504H40.932V17.3835H25.5242V14.4504H24.7288V21.2821H25.5242V18.0856H40.932V21.2821ZM56.7168 21.2826L54.6663 14.451H53.802L52.0642 20.1925L50.4091 14.451H49.5402L47.4622 21.2826H48.2943L49.9908 15.3979L51.6229 21.1579H52.5193L54.202 15.4025L55.8847 21.2826H56.7168ZM50.3915 11.7155H49.5961V8.51912H45.783V11.7155H44.9876V4.88389H45.783V7.81701H49.5961V4.88389H50.3915V11.7155ZM57.9864 14.4753V21.2826H61.9628L62 20.5784H58.791V18.1021H61.7442V17.4072H58.791V15.1795H61.8977L61.9302 14.4753H57.9864Z" fill="url(#paint0_linear_5838_69307)" shape-rendering="crispEdges"/>
</g>
<g opacity="0.6" filter="url(#filter1_d_5838_69307)">
<path d="M51.8857 11.7229V4.81543L61.7435 4.81543V5.52999L52.6931 5.52999V7.79045L61.7435 7.79045V8.49567L52.6931 8.49567V11.0083L61.7535 11.0083V11.7229L51.8857 11.7229Z" fill="url(#paint1_linear_5838_69307)" shape-rendering="crispEdges"/>
</g>
<defs>
<filter id="filter0_d_5838_69307" x="0.838234" y="1.37425" width="66.3235" height="26.7908" filterUnits="userSpaceOnUse" color-interpolation-filters="sRGB">
<feFlood flood-opacity="0" result="BackgroundImageFix"/>
<feColorMatrix in="SourceAlpha" type="matrix" values="0 0 0 0 0 0 0 0 0 0 0 0 0 0 0 0 0 0 127 0" result="hardAlpha"/>
<feOffset dy="1.72059"/>
<feGaussianBlur stdDeviation="2.58088"/>
<feComposite in2="hardAlpha" operator="out"/>
<feColorMatrix type="matrix" values="0 0 0 0 0 0 0 0 0 0 0 0 0 0 0 0 0 0 0.25 0"/>
<feBlend mode="normal" in2="BackgroundImageFix" result="effect1_dropShadow_5838_69307"/>
<feBlend mode="normal" in="SourceGraphic" in2="effect1_dropShadow_5838_69307" result="shape"/>
</filter>
<filter id="filter1_d_5838_69307" x="45.7007" y="0.692081" width="22.2378" height="19.2775" filterUnits="userSpaceOnUse" color-interpolation-filters="sRGB">
<feFlood flood-opacity="0" result="BackgroundImageFix"/>
<feColorMatrix in="SourceAlpha" type="matrix" values="0 0 0 0 0 0 0 0 0 0 0 0 0 0 0 0 0 0 127 0" result="hardAlpha"/>
<feOffset dy="2.06167"/>
<feGaussianBlur stdDeviation="3.09251"/>
<feComposite in2="hardAlpha" operator="out"/>
<feColorMatrix type="matrix" values="0 0 0 0 0 0 0 0 0 0 0 0 0 0 0 0 0 0 0.25 0"/>
<feBlend mode="normal" in2="BackgroundImageFix" result="effect1_dropShadow_5838_69307"/>
<feBlend mode="normal" in="SourceGraphic" in2="effect1_dropShadow_5838_69307" result="shape"/>
</filter>
<linearGradient id="paint0_linear_5838_69307" x1="8.33331" y1="11.2981" x2="75.067" y2="10.4432" gradientUnits="userSpaceOnUse">
<stop stop-color="white"/>
<stop offset="0.152059" stop-color="white" stop-opacity="0.847941"/>
<stop offset="1" stop-color="white" stop-opacity="0"/>
</linearGradient>
<linearGradient id="paint1_linear_5838_69307" x1="8.63339" y1="7.96524" x2="103.111" y2="7.5715" gradientUnits="userSpaceOnUse">
<stop offset="0.170667" stop-color="white"/>
<stop offset="1" stop-color="white" stop-opacity="0"/>
</linearGradient>
</defs>
</svg>
