<svg width="20" height="21" viewBox="0 0 20 21" fill="none" xmlns="http://www.w3.org/2000/svg">
<path d="M10.0179 12.368C10.2882 12.368 10.5123 12.1517 10.5123 11.8813V4.16421L10.4736 3.09046L11.0684 3.70072L12.2503 4.95214C12.343 5.05256 12.4744 5.09891 12.598 5.09891C12.8529 5.09891 13.0537 4.91352 13.0537 4.6586C13.0537 4.52728 12.9997 4.42685 12.907 4.32643L10.3809 1.86994C10.2496 1.74635 10.1415 1.7 10.0179 1.7C9.88655 1.7 9.77841 1.74635 9.65481 1.86994L7.12107 4.32643C7.02838 4.42685 6.9743 4.52728 6.9743 4.6586C6.9743 4.91352 7.16742 5.09891 7.42234 5.09891C7.54594 5.09891 7.68499 5.05256 7.77768 4.95214L8.95958 3.70072L9.55439 3.09046L9.51576 4.16421V11.8813C9.51576 12.1517 9.74751 12.368 10.0179 12.368ZM5.82331 18.0302H14.2124C15.6802 18.0302 16.414 17.2887 16.414 15.8441V8.45148C16.414 7.01466 15.6802 6.27308 14.2124 6.27308H12.1499V7.27731H14.1893C14.9618 7.27731 15.4098 7.69445 15.4098 8.50555V15.79C15.4098 16.6011 14.9618 17.0183 14.1893 17.0183H5.83876C5.05083 17.0183 4.62596 16.6011 4.62596 15.79V8.50555C4.62596 7.69445 5.05083 7.27731 5.83876 7.27731H7.88583V6.27308H5.82331C4.35559 6.27308 3.61401 7.00694 3.61401 8.45148V15.8441C3.61401 17.2964 4.35559 18.0302 5.82331 18.0302Z" fill="#6FCF97" stroke="#6FCF97" stroke-width="0.4"/>
</svg>
