<svg width="34" height="34" viewBox="0 0 34 34" fill="none" xmlns="http://www.w3.org/2000/svg">
<g id="Mail">
<path id="&#244;&#128;&#141;&#150;" d="M17.0229 18.5829C17.4686 18.5829 17.88 18.3771 18.36 17.8971L27.7771 8.58286C27.3657 8.19429 26.6229 8 25.56 8H8.14286C7.22857 8 6.57714 8.18286 6.21143 8.52571L15.6743 17.8971C16.1429 18.3771 16.5657 18.5829 17.0229 18.5829ZM5.28571 24.9829L12.9543 17.3714L5.26286 9.78286C5.09143 10.1029 5 10.64 5 11.4057V23.3486C5 24.1143 5.09143 24.6629 5.28571 24.9829ZM28.7371 24.96C28.9086 24.64 29 24.1029 29 23.3486V11.4057C29 10.6629 28.9086 10.1257 28.7371 9.81714L21.08 17.3714L28.7371 24.96ZM8.45143 26.7429H25.8686C26.7829 26.7429 27.4229 26.5714 27.7886 26.2171L19.96 18.4571L19.2629 19.1657C18.52 19.8743 17.8114 20.2171 17.0229 20.2171C16.2229 20.2171 15.5257 19.8743 14.7829 19.1657L14.0743 18.4571L6.25714 26.2057C6.68 26.56 7.41143 26.7429 8.45143 26.7429Z" fill="black"/>
</g>
</svg>
