<svg width="34" height="34" viewBox="0 0 34 34" fill="none" xmlns="http://www.w3.org/2000/svg">
<g id="Apple">
<path id="&#244;&#128;&#163;&#186;" d="M21.3522 5.73062C22.2668 4.62681 22.9133 3.11301 22.9133 1.59921C22.9133 1.37845 22.8975 1.17346 22.8502 1C21.3679 1.06307 19.5861 1.99343 18.5138 3.25493C17.6781 4.20105 16.8896 5.73062 16.8896 7.24442C16.8896 7.48095 16.9369 7.70171 16.9527 7.78055C17.0473 7.79632 17.205 7.81209 17.3469 7.81209C18.6873 7.81209 20.3587 6.92904 21.3522 5.73062ZM22.3929 8.14323C20.1695 8.14323 18.3561 9.49934 17.205 9.49934C15.9593 9.49934 14.3509 8.22208 12.3955 8.22208C8.72142 8.22208 5 11.2654 5 16.9895C5 20.569 6.37188 24.3535 8.0749 26.7819C9.54139 28.8318 10.8187 30.5348 12.6636 30.5348C14.4928 30.5348 15.297 29.3206 17.5677 29.3206C19.8699 29.3206 20.3745 30.5033 22.3929 30.5033C24.3955 30.5033 25.7359 28.6741 26.9816 26.8607C28.4008 24.7792 28.9842 22.7608 29 22.6662C28.8896 22.6347 25.0578 21.0736 25.0578 16.6899C25.0578 12.9054 28.0696 11.2024 28.2431 11.0762C26.2562 8.22208 23.2286 8.14323 22.3929 8.14323Z" fill="black"/>
</g>
</svg>
