<svg width="34" height="34" viewBox="0 0 34 34" fill="none" xmlns="http://www.w3.org/2000/svg">
<g clip-path="url(#clip0_1_54)">
<path fill-rule="evenodd" clip-rule="evenodd" d="M20.7721 10.9453L24.6595 7.76262C22.5813 6.03716 19.9116 5 17 5C12.3622 5 8.33893 7.63074 6.34176 11.4813H6.34175C5.48394 13.1336 5 15.0101 5 16.9999C5 19.0578 5.51759 20.9942 6.43011 22.6867L6.43008 22.6869C8.45691 26.4458 12.4301 29.0001 17 29.0001C19.8437 29.0001 22.456 28.011 24.5125 26.3581L24.5118 26.3574L24.5117 26.3573L24.512 26.3573L24.5126 26.358C26.6271 24.6582 28.1535 22.2563 28.7377 19.5055C28.9097 18.6971 29.0001 17.8591 29.0001 17C29.0001 16.2338 28.9282 15.4841 28.7904 14.7582H23.7742H17.2639V19.5055H23.6806C23.103 21.047 22.0065 22.3347 20.6034 23.1576L20.6035 23.1578L20.6033 23.1576C19.5464 23.7781 18.3147 24.1335 17 24.1335C13.9413 24.1335 11.3323 22.2082 10.3189 19.5036L10.3189 19.5034C10.0262 18.7248 9.86661 17.8808 9.86652 16.9999C9.86652 16.1883 10.0024 15.4083 10.2516 14.6817L10.2516 14.6818C11.2143 11.8802 13.8721 9.86656 17 9.86656C18.3852 9.86656 19.6782 10.2615 20.7721 10.9453Z" fill="black"/>
</g>
<defs>
<clipPath id="clip0_1_54">
<rect width="24" height="24" fill="white" transform="translate(5 5)"/>
</clipPath>
</defs>
</svg>
