<svg width="20" height="20" viewBox="0 0 20 20" fill="none" xmlns="http://www.w3.org/2000/svg">
<path d="M6.45433 18.112H13.2911C14.3781 18.112 15.1027 17.4188 15.15 16.3319L15.6619 5.52534H16.5362C16.8592 5.52534 17.1191 5.25754 17.1191 4.9346C17.1191 4.60379 16.8592 4.33599 16.5362 4.33599H13.1572V3.20965C13.1572 2.11481 12.4483 1.44531 11.2747 1.44531H8.44708C7.2656 1.44531 6.55672 2.11481 6.55672 3.20965V4.33599H3.20133C2.8784 4.33599 2.6106 4.60379 2.6106 4.9346C2.6106 5.25754 2.8784 5.52534 3.20133 5.52534H4.06775L4.57972 16.3319C4.63486 17.4267 5.34374 18.112 6.45433 18.112ZM7.80908 3.28054C7.80908 2.87096 8.09264 2.60316 8.52584 2.60316H11.1881C11.6213 2.60316 11.9127 2.87096 11.9127 3.28054V4.33599H7.80908V3.28054ZM6.57247 16.9226C6.14714 16.9226 5.83208 16.6076 5.80845 16.1744L5.29648 5.52534H14.4017L13.9212 16.1744C13.8976 16.6154 13.5904 16.9226 13.1572 16.9226H6.57247ZM7.65943 15.6703C7.95874 15.6703 8.14777 15.4812 8.1399 15.2134L7.91148 7.29755C7.9036 7.02187 7.70669 6.84859 7.43101 6.84859C7.13958 6.84859 6.95054 7.02975 6.95842 7.30543L7.17896 15.2213C7.18684 15.497 7.38375 15.6703 7.65943 15.6703ZM9.86485 15.6703C10.1563 15.6703 10.3611 15.4891 10.3611 15.2134V7.30543C10.3611 7.02975 10.1563 6.84859 9.86485 6.84859C9.57342 6.84859 9.37651 7.02975 9.37651 7.30543V15.2134C9.37651 15.4891 9.57342 15.6703 9.86485 15.6703ZM12.0703 15.6781C12.3538 15.6781 12.5429 15.497 12.5507 15.2213L12.7792 7.30543C12.787 7.02975 12.5901 6.84859 12.2987 6.84859C12.023 6.84859 11.8261 7.02975 11.8182 7.30543L11.5898 15.2134C11.5819 15.4891 11.7788 15.6781 12.0703 15.6781Z" fill="#EB5757"/>
</svg>
