<svg width="24" height="24" viewBox="0 0 24 24" fill="none" xmlns="http://www.w3.org/2000/svg">
<path d="M12.0121 12.0171C14.7415 12.0171 16.9638 9.72908 16.9638 6.94024C16.9638 4.18554 14.7536 2 12.0121 2C9.28261 2 7.04831 4.20831 7.04831 6.96301C7.06039 9.74047 9.28261 12.0171 12.0121 12.0171ZM12.0121 10.3096C10.3696 10.3096 8.9686 8.84121 8.9686 6.96301C8.9686 5.10757 10.3454 3.70746 12.0121 3.70746C13.6787 3.70746 15.0435 5.0848 15.0435 6.94024C15.0435 8.81844 13.6667 10.3096 12.0121 10.3096ZM4.85024 22H19.1618C21.0821 22 22 21.4422 22 20.2356C22 17.3671 18.1836 13.3261 12 13.3261C5.8285 13.3261 2 17.3671 2 20.2356C2 21.4422 2.91787 22 4.85024 22ZM4.35507 20.2925C4.06522 20.2925 3.95652 20.2129 3.95652 19.9966C3.95652 18.2664 6.83092 15.0336 12 15.0336C17.1812 15.0336 20.0556 18.2664 20.0556 19.9966C20.0556 20.2129 19.9469 20.2925 19.657 20.2925H4.35507Z" fill="#F2F2F2"/>
</svg>
